<svg width="104" height="104" viewBox="0 0 104 104" fill="none" xmlns="http://www.w3.org/2000/svg">
<g id="Group 3849" opacity="0.7">
<g id="Group 3844">
<path id="Path 18932" d="M53.0913 50.7824C57.3598 55.0815 56.8505 59.8465 56.08 67.0415C55.6741 70.8234 55.2165 75.1122 55.4699 79.9541C55.9792 89.615 53.6446 97.0378 49.2287 99.8108C47 101.209 44.4017 101.252 41.9145 99.9286C41.263 99.583 40.6839 99.1682 40.1435 98.6586C37.8838 96.5308 36.692 93.0613 35.4303 89.387C33.9618 85.1084 32.2968 80.2614 28.5272 76.7125L28.2635 76.4693L27.992 76.2056C24.2509 72.6849 19.3128 71.269 14.9589 70.0169C11.2126 68.9414 7.67318 67.9249 5.42387 65.8074C4.87058 65.2875 4.41557 64.7243 4.02774 64.0842C2.57992 61.6824 2.50493 59.109 3.81315 56.8405C6.40891 52.3469 13.7903 49.6992 23.558 49.7582C28.4548 49.7889 32.7569 49.1411 36.5549 48.5675C43.7786 47.4767 48.559 46.7573 53.0913 50.7824ZM55.082 48.7186C46.7312 41.224 37.5632 46.9928 23.5761 46.9058C3.05304 46.7777 -3.31484 57.473 1.55349 65.5462C2.09126 66.4373 2.72728 67.208 3.43826 67.8762C9.10552 73.2098 19.7083 72.3469 26.0064 78.2745C26.0814 78.3461 26.1564 78.4178 26.2313 78.4922L26.2986 78.5587L26.3658 78.6202C26.4252 78.6739 26.4847 78.7277 26.5416 78.7814C32.8811 84.75 32.457 95.3607 38.1579 100.727C38.856 101.383 39.6445 101.962 40.552 102.443C48.9184 106.893 59.4152 100.103 58.35 79.8056C57.6235 65.9713 63.0245 56.6382 55.082 48.7186Z" fill="#FFEAF2"/>
</g>
<g id="Group 3845">
<path id="Path 18933" d="M34.4452 8.18819C37.6795 11.2326 39.2075 17.3445 38.3362 23.756C37.7261 28.2471 36.043 32.2824 33.6023 35.117C32.3613 36.5559 29.825 38.909 26.7613 38.5019C25.5694 38.3432 24.4474 37.7747 23.4287 36.8171C20.1918 33.7727 18.6664 27.6633 19.5351 21.2518C20.1452 16.7582 21.8283 12.7228 24.2716 9.88833C25.51 8.44935 28.0463 6.0962 31.11 6.50334C32.3019 6.66211 33.424 7.23053 34.4452 8.18819ZM36.4282 6.11926C35.0088 4.78525 33.3412 3.92238 31.4926 3.6766C24.724 2.77269 18.0924 10.4721 16.6808 20.8703C15.6544 28.4289 17.6658 35.332 21.4431 38.886C22.8625 40.2226 24.5301 41.0829 26.3787 41.3313C33.1473 42.2325 39.7789 34.5332 41.1905 24.135C42.2196 16.5764 40.2055 9.67325 36.4282 6.11926Z" fill="#FFEAF2"/>
</g>
<g id="Group 3846">
<path id="Path 18934" d="M96.8754 67.2562C97.907 68.2292 98.5404 69.3225 98.7575 70.508C99.6754 75.5189 93.1033 81.0701 84.4111 82.6319C78.0121 83.7791 71.7916 82.5577 68.5624 79.521C67.5309 78.548 66.8974 77.4547 66.6802 76.2692C65.7624 71.2583 72.332 65.7071 81.0267 64.1477C87.4257 62.998 93.6462 64.2194 96.8754 67.2562ZM98.861 65.1873C95.0914 61.641 88.0617 59.9818 80.5122 61.3388C70.0878 63.2106 62.6263 70.1213 63.8441 76.7786C64.1801 78.6146 65.1419 80.2379 66.5768 81.5898C70.3438 85.1361 77.3761 86.7954 84.9256 85.4383C95.3474 83.5666 102.811 76.6558 101.594 69.9985C101.258 68.1626 100.296 66.5392 98.861 65.1873Z" fill="#FFEAF2"/>
</g>
<g id="Group 3847">
<path id="Path 18935" d="M73.1389 4.4576C76.924 8.02182 76.0863 16.4843 71.2309 23.7254C68.5446 27.7326 65.0465 30.8129 61.3804 32.3978C59.506 33.2095 55.9459 34.2951 53.1691 32.4695C52.8951 32.2903 52.6365 32.0854 52.3987 31.8601C48.611 28.2958 49.4487 19.8334 54.3067 12.5923C56.9929 8.58512 60.491 5.50741 64.1546 3.91991C66.029 3.11078 69.5891 2.02257 72.3659 3.84825C72.64 4.02744 72.8985 4.23227 73.1389 4.4576ZM75.1245 2.3887C74.7651 2.05332 74.3773 1.74606 73.9611 1.47205C67.9629 -2.47625 58.0866 1.79722 51.9048 11.0125C46.1523 19.5876 45.6249 29.4225 50.4131 33.929C50.7699 34.2644 51.1577 34.5716 51.5739 34.8482C57.5747 38.794 67.4484 34.5231 73.6301 25.3052C79.3827 16.7301 79.9101 6.89521 75.1245 2.3887Z" fill="#FFEAF2"/>
</g>
<g id="Group 3848">
<path id="Path 18936" d="M98.8817 28.8129C99.1273 29.0459 99.3522 29.2994 99.5513 29.5708C102.806 33.9698 99.1454 42.3374 91.5572 47.8374C84.4989 52.9558 76.0085 54.1798 72.2311 50.6258C71.9856 50.3928 71.758 50.1393 71.559 49.8679C69.5889 47.205 70.5248 43.6331 71.2564 41.7409C72.6887 38.0435 75.6361 34.4434 79.553 31.6013C86.6138 26.4829 95.1017 25.2589 98.8817 28.8129ZM100.865 26.744C96.0894 22.2504 86.2209 23.231 77.8519 29.2994C68.8365 35.8364 64.979 45.7992 69.2346 51.5553C69.5397 51.9675 69.8784 52.3465 70.2455 52.6948C75.0208 57.1884 84.8919 56.2077 93.261 50.1419C102.274 43.6049 106.134 33.6395 101.878 27.8834C101.573 27.4712 101.234 27.0923 100.865 26.744Z" fill="#FFEAF2"/>
</g>
</g>
</svg>
